name C:\Users\antoi\Documents\MyRepositories\upper-imu-dc\Results\main_tracking\Case_86\kinematics.mot
datacolumns 43
datarows 6
range 1.70000000 1.80000000
endheader 
time	clav_prot	clav_elev	scapula_abduction	scapula_elevation	scapula_upward_rot	scapula_winging	plane_elv	shoulder_elv	axial_rot	TrapeziusScapula_M/activation	TrapeziusScapula_S/activation	TrapeziusScapula_I/activation	TrapeziusClavicle_S/activation	SerratusAnterior_I/activation	SerratusAnterior_M/activation	SerratusAnterior_S/activation	Rhomboideus_S/activation	Rhomboideus_I/activation	LevatorScapulae/activation	Coracobrachialis/activation	DeltoideusClavicle_A/activation	DeltoideusScapula_P/activation	DeltoideusScapula_M/activation	LatissimusDorsi_S/activation	LatissimusDorsi_M/activation	LatissimusDorsi_I/activation	PectoralisMajorClavicle_S/activation	PectoralisMajorThorax_I/activation	PectoralisMajorThorax_M/activation	TeresMajor/activation	Infraspinatus_I/activation	Infraspinatus_S/activation	PectoralisMinor/activation	TeresMinor/activation	Subscapularis_S/activation	Subscapularis_M/activation	Subscapularis_I/activation	Supraspinatus_P/activation	Supraspinatus_A/activation	TRIlong/activation	BIC_long/activation	BIC_brevis/activation	
          1.70000000	        -40.74364136	         -1.49617807	        -34.25331519	         -6.37862887	         26.46526629	         -3.14491929	        -20.10857969	         -3.41896489	         88.11032802	          0.01000000	          0.03135893	          0.01000000	          0.01000128	          0.04591943	          0.02459833	          0.01000000	          0.01000000	          0.01000000	          0.01000000	          0.01000000	          0.01000000	          0.01000003	          0.01390369	          0.01000000	          0.01000000	          0.01000000	          0.01000000	          0.01000000	          0.01000000	          0.01000000	          0.01299128	          0.01000000	          0.01000000	          0.01248693	          0.01000000	          0.01000000	          0.01000000	          0.01000000	          0.01000000	          0.01000000	          0.01000000	          0.01000000	
          1.72000000	        -40.77362899	         -1.42551585	        -34.33992250	         -6.32308613	         26.43147977	         -3.18330522	        -19.84559738	         -3.48493333	         87.73600918	          0.01000000	          0.03165149	          0.01000000	          0.01060043	          0.04420724	          0.02587073	          0.01000000	          0.01000000	          0.01000000	          0.01000000	          0.01000000	          0.01000000	          0.01079911	          0.01455546	          0.01000000	          0.01000000	          0.01000000	          0.01000000	          0.01000000	          0.01000000	          0.01000000	          0.01285705	          0.01000000	          0.01000000	          0.01295950	          0.01000000	          0.01000000	          0.01000000	          0.01000000	          0.01000000	          0.01000000	          0.01000000	          0.01000000	
          1.74000000	        -40.79390441	         -1.33453977	        -34.43154771	         -6.24801754	         26.37732411	         -3.22114726	        -19.55151395	         -3.54994201	         87.32759704	          0.01000000	          0.03195849	          0.01000000	          0.01119587	          0.04255526	          0.02717111	          0.01000000	          0.01000000	          0.01000000	          0.01000000	          0.01000000	          0.01000000	          0.01199552	          0.01531471	          0.01000000	          0.01000000	          0.01000000	          0.01000000	          0.01000000	          0.01000000	          0.01000000	          0.01286886	          0.01000000	          0.01000000	          0.01316886	          0.01000000	          0.01000000	          0.01000000	          0.01000000	          0.01000000	          0.01000000	          0.01000000	          0.01000000	
          1.76000000	        -40.80752401	         -1.22822823	        -34.53368150	         -6.15659135	         26.29946277	         -3.25684451	        -19.23462326	         -3.60965505	         86.88371081	          0.01000000	          0.03219496	          0.01000000	          0.01174691	          0.04101117	          0.02838698	          0.01000000	          0.01000000	          0.01000000	          0.01000000	          0.01000000	          0.01000000	          0.01319922	          0.01599381	          0.01000000	          0.01000000	          0.01000000	          0.01000000	          0.01000000	          0.01000000	          0.01000000	          0.01278363	          0.01000000	          0.01000000	          0.01346408	          0.01000000	          0.01000000	          0.01000000	          0.01000000	          0.01000000	          0.01000000	          0.01000000	          0.01000000	
          1.78000000	        -40.81759955	         -1.11325399	        -34.65138296	         -6.05318654	         26.19455101	         -3.28812314	        -18.90425217	         -3.65909481	         86.40409987	          0.01000000	          0.03224602	          0.01000000	          0.01223779	          0.03956959	          0.02942153	          0.01000000	          0.01000000	          0.01000000	          0.01000000	          0.01000000	          0.01000000	          0.01415108	          0.01635216	          0.01000000	          0.01000000	          0.01000000	          0.01000000	          0.01000000	          0.01000000	          0.01000000	          0.01273602	          0.01000000	          0.01000000	          0.01372752	          0.01000000	          0.01000000	          0.01000000	          0.01000000	          0.01000000	          0.01000000	          0.01000000	          0.01000000	
          1.80000000	        -40.82637645	         -0.99762372	        -34.78829866	         -5.94295786	         26.05876068	         -3.31168024	        -18.56906260	         -3.69292711	         85.89135845	          0.01000000	          0.03198918	          0.01000000	          0.01262355	          0.03816427	          0.03022430	          0.01000000	          0.01000000	          0.01000000	          0.01000000	          0.01000000	          0.01000000	          0.01453871	          0.01614899	          0.01000000	          0.01000000	          0.01000000	          0.01000000	          0.01000000	          0.01000000	          0.01000000	          0.01280113	          0.01000000	          0.01000000	          0.01392284	          0.01000000	          0.01000000	          0.01000000	          0.01000000	          0.01000000	          0.01000000	          0.01000000	          0.01000000	
